<svg width="24" height="23" fill="none" xmlns="http://www.w3.org/2000/svg"><path d="M12.221 23c-2.403 0-4.46-.474-6.17-1.422-1.711-.957-3.023-2.288-3.936-3.993-.913-1.714-1.37-3.7-1.37-5.96s.457-4.242 1.37-5.946A9.682 9.682 0 0 1 6.05 1.686C7.76.728 9.818.25 12.22.25s4.46.478 6.17 1.436a9.682 9.682 0 0 1 3.937 3.993c.913 1.704 1.37 3.686 1.37 5.946s-.457 4.246-1.37 5.96c-.913 1.705-2.225 3.035-3.936 3.993-1.71.948-3.768 1.422-6.17 1.422z" fill="#FB6231"/><path d="M20.23 12 8.426 18.928V5.072L20.23 12z" fill="#fff"/></svg>